<?xml version="1.0" encoding="UTF-8" standalone="no"?>
<svg width="20px" height="20px" viewBox="0 0 20 20" version="1.1" xmlns="http://www.w3.org/2000/svg" xmlns:xlink="http://www.w3.org/1999/xlink" xmlns:sketch="http://www.bohemiancoding.com/sketch/ns">
    <title>facebook</title>
    <description>Created with Sketch (http://www.bohemiancoding.com/sketch)</description>
    <defs></defs>
    <g id="Page-1" stroke="none" stroke-width="1" fill="none" fill-rule="evenodd" sketch:type="MSPage">
        <g id="facebook" sketch:type="MSArtboardGroup" fill="#D2D1D2">
            <path d="M18.896191,0 L1.103809,0 C0.494128755,0 0,0.494053819 0,1.103809 L0,18.896191 C0,19.5057963 0.494128755,20 1.103809,20 L10.6825931,20 L10.6825931,12.2549776 L8.07624001,12.2549776 L8.07624001,9.23655084 L10.6825931,9.23655084 L10.6825931,7.01057349 C10.6825931,4.42730073 12.260373,3.02067487 14.5648085,3.02067487 C15.6686175,3.02067487 16.6173837,3.10287979 16.893823,3.13959849 L16.893823,5.83924704 L15.2955855,5.8399964 C14.042279,5.8399964 13.7996358,6.43551372 13.7996358,7.30941872 L13.7996358,9.23655084 L16.7886127,9.23655084 L16.3993945,12.2549776 L13.7996358,12.2549776 L13.7996358,20 L18.896191,20 C19.5057963,20 20,19.5057963 20,18.896191 L20,1.103809 C20,0.494053819 19.5057963,0 18.896191,0" id="Imported-Layers" sketch:type="MSShapeGroup"></path>
        </g>
    </g>
</svg>