<?xml version="1.0" encoding="UTF-8" standalone="no"?>
<svg width="20px" height="20px" viewBox="0 0 20 20" version="1.1" xmlns="http://www.w3.org/2000/svg" xmlns:xlink="http://www.w3.org/1999/xlink" xmlns:sketch="http://www.bohemiancoding.com/sketch/ns">
    <title>link</title>
    <description>Created with Sketch (http://www.bohemiancoding.com/sketch)</description>
    <defs></defs>
    <g id="Page-1" stroke="none" stroke-width="1" fill="none" fill-rule="evenodd" sketch:type="MSPage">
        <g id="link" sketch:type="MSArtboardGroup" fill="#D2D1D2">
            <g id="Imported-Layers" sketch:type="MSLayerGroup" transform="translate(1.000000, 1.000000)">
                <path d="M4.61864228,6.42635313 C4.9465258,6.0936842 5.31006302,5.81938675 5.69668817,5.60310783 C7.8513886,4.39782271 10.615028,5.03889427 12,7.17018144 L10.3239721,8.87089618 C9.84312557,7.75786713 8.64998782,7.12526672 7.46241552,7.39479914 C7.01535301,7.4962764 6.59046536,7.72248245 6.24327666,8.07482914 L3.03018335,11.3351611 C2.054794,12.3249174 2.05483748,13.9354497 3.03027031,14.925206 C4.00565966,15.9149622 5.59277071,15.9149622 6.56816006,14.925206 L7.55863701,13.920184 C8.45911013,14.2827225 9.42558605,14.4279233 10.378844,14.355345 L8.19275096,16.5736378 C6.31854074,18.4754541 3.27988963,18.4754541 1.40567941,16.5736378 C-0.468530816,14.6718658 -0.468574296,11.5884131 1.40563593,9.68659686 L4.61864228,6.42635313 L4.61864228,6.42635313 Z M9.80718105,1.42637094 L7.62107709,3.64467749 C8.57451373,3.57218698 9.54082056,3.7173886 10.4413416,4.07992937 L11.43178,3.07485711 C12.4072177,2.08505065 13.9943367,2.08505065 14.9697744,3.07485711 C15.9452121,4.06466357 15.9452121,5.67516172 14.9697744,6.66496818 L11.7567085,9.92527612 C10.7783577,10.9180387 9.18871685,10.9096557 8.21880117,9.92527612 C7.9926165,9.69580374 7.79730286,9.41003319 7.67599274,9.12933654 L6,10.8300176 C6.17605185,11.1010077 6.35919099,11.3353334 6.59420217,11.5738064 C7.20070927,12.1892918 7.97244162,12.647663 8.86026645,12.8643845 C10.0110168,13.1454341 11.2439885,12.9896435 12.3032563,12.3970568 C12.6898834,12.1807324 13.0534659,11.9064774 13.3813075,11.5738064 L16.5943299,8.31349847 C18.4685495,6.41167055 18.4685495,3.32824297 16.5943734,1.42637094 C14.7201103,-0.475456979 11.6814441,-0.475456979 9.80718105,1.42637094 L9.80718105,1.42637094 Z" sketch:type="MSShapeGroup"></path>
            </g>
        </g>
    </g>
</svg>