<?xml version="1.0" encoding="UTF-8" standalone="no"?>
<svg width="20px" height="20px" viewBox="0 0 20 20" version="1.1" xmlns="http://www.w3.org/2000/svg" xmlns:xlink="http://www.w3.org/1999/xlink" xmlns:sketch="http://www.bohemiancoding.com/sketch/ns">
    <title>twitter</title>
    <description>Created with Sketch (http://www.bohemiancoding.com/sketch)</description>
    <defs></defs>
    <g id="Page-1" stroke="none" stroke-width="1" fill="none" fill-rule="evenodd" sketch:type="MSPage">
        <g id="twitter" sketch:type="MSArtboardGroup" fill="#D2D1D2">
            <path d="M9.74351659,6.29158603 C9.74351659,6.62794696 9.77980175,6.95543213 9.84973847,7.26960365 C6.43959179,7.09063454 3.41614543,5.38204953 1.39229672,2.78550532 C1.03910165,3.41943397 0.836826512,4.15658166 0.836826512,4.94315819 C0.836826512,6.43199147 1.56121292,7.74568139 2.66220418,8.51527154 C1.98961191,8.49300561 1.35688943,8.29995769 0.80368704,7.97844071 C0.803394418,7.99642179 0.803321263,8.01432635 0.803321263,8.03246046 C0.803321263,10.1118383 2.21771096,11.8464384 4.09480961,12.2406449 C3.75046637,12.3386609 3.38798054,12.3911503 3.01378982,12.3911503 C2.74933246,12.3911503 2.4922638,12.364217 2.24177914,12.314176 C2.76389041,14.0191648 4.27923479,15.2600122 6.07476499,15.2946736 C4.67047076,16.4456922 2.90120341,17.1318042 0.978821464,17.1318042 C0.64764622,17.1318042 0.321006621,17.1114512 0,17.0718928 C1.81586744,18.2895561 3.97271297,19 6.28991551,19 C13.837302,19 17.9644464,12.4604731 17.9644464,6.78916454 C17.9644464,6.60315603 17.9604228,6.4180657 17.9525952,6.23404658 C18.7542339,5.62888765 19.4498701,4.87299373 20,4.01235046 C19.2641282,4.35368488 18.4733897,4.58445481 17.6432935,4.68813294 C18.4905081,4.15704075 19.1411537,3.31598538 19.447456,2.31378894 C18.6546692,2.80562882 17.7765097,3.1628019 16.8418742,3.35531421 C16.0934197,2.52114521 15.0269578,2 13.8468122,2 C11.5806723,2 9.74351659,3.92152688 9.74351659,6.29158603 Z" id="Imported-Layers" sketch:type="MSShapeGroup"></path>
        </g>
    </g>
</svg>